<mxfile host="app.diagrams.net" agent="Mozilla/5.0 (Windows NT 10.0; Win64; x64) AppleWebKit/537.36 (KHTML, like Gecko) Chrome/132.0.0.0 Safari/537.36 OPR/117.0.0.0" version="26.2.5">
  <diagram name="1 oldal" id="DGnvZsIDMmg3J4ifdTCP">
    <mxGraphModel dx="1832" dy="1003" grid="1" gridSize="10" guides="1" tooltips="1" connect="1" arrows="1" fold="1" page="1" pageScale="1" pageWidth="827" pageHeight="400" math="0" shadow="0">
      <root>
        <mxCell id="0" />
        <mxCell id="1" parent="0" />
        <mxCell id="uXLz3Z_i18WQ9WRzZwcr-19" value="Tanszék" style="shape=table;startSize=30;container=1;collapsible=0;childLayout=tableLayout;strokeColor=default;fontSize=16;fontStyle=1" vertex="1" parent="1">
          <mxGeometry x="80" y="80" width="440" height="190" as="geometry" />
        </mxCell>
        <mxCell id="uXLz3Z_i18WQ9WRzZwcr-20" value="" style="shape=tableRow;horizontal=0;startSize=0;swimlaneHead=0;swimlaneBody=0;strokeColor=inherit;top=0;left=0;bottom=0;right=0;collapsible=0;dropTarget=0;fillColor=none;points=[[0,0.5],[1,0.5]];portConstraint=eastwest;fontSize=16;" vertex="1" parent="uXLz3Z_i18WQ9WRzZwcr-19">
          <mxGeometry y="30" width="440" height="40" as="geometry" />
        </mxCell>
        <mxCell id="uXLz3Z_i18WQ9WRzZwcr-21" value="Attribútum" style="shape=partialRectangle;html=1;whiteSpace=wrap;connectable=0;strokeColor=inherit;overflow=hidden;fillColor=none;top=0;left=0;bottom=0;right=0;pointerEvents=1;fontSize=16;" vertex="1" parent="uXLz3Z_i18WQ9WRzZwcr-20">
          <mxGeometry width="150" height="40" as="geometry">
            <mxRectangle width="150" height="40" as="alternateBounds" />
          </mxGeometry>
        </mxCell>
        <mxCell id="uXLz3Z_i18WQ9WRzZwcr-22" value="Adattípus" style="shape=partialRectangle;html=1;whiteSpace=wrap;connectable=0;strokeColor=inherit;overflow=hidden;fillColor=none;top=0;left=0;bottom=0;right=0;pointerEvents=1;fontSize=16;" vertex="1" parent="uXLz3Z_i18WQ9WRzZwcr-20">
          <mxGeometry x="150" width="149" height="40" as="geometry">
            <mxRectangle width="149" height="40" as="alternateBounds" />
          </mxGeometry>
        </mxCell>
        <mxCell id="uXLz3Z_i18WQ9WRzZwcr-23" value="Integritási feltétel" style="shape=partialRectangle;html=1;whiteSpace=wrap;connectable=0;strokeColor=inherit;overflow=hidden;fillColor=none;top=0;left=0;bottom=0;right=0;pointerEvents=1;fontSize=16;" vertex="1" parent="uXLz3Z_i18WQ9WRzZwcr-20">
          <mxGeometry x="299" width="141" height="40" as="geometry">
            <mxRectangle width="141" height="40" as="alternateBounds" />
          </mxGeometry>
        </mxCell>
        <mxCell id="uXLz3Z_i18WQ9WRzZwcr-24" value="" style="shape=tableRow;horizontal=0;startSize=0;swimlaneHead=0;swimlaneBody=0;strokeColor=inherit;top=0;left=0;bottom=0;right=0;collapsible=0;dropTarget=0;fillColor=none;points=[[0,0.5],[1,0.5]];portConstraint=eastwest;fontSize=16;" vertex="1" parent="uXLz3Z_i18WQ9WRzZwcr-19">
          <mxGeometry y="70" width="440" height="40" as="geometry" />
        </mxCell>
        <mxCell id="uXLz3Z_i18WQ9WRzZwcr-25" value="&lt;u&gt;kód&lt;/u&gt;" style="shape=partialRectangle;html=1;whiteSpace=wrap;connectable=0;strokeColor=inherit;overflow=hidden;fillColor=none;top=0;left=0;bottom=0;right=0;pointerEvents=1;fontSize=16;" vertex="1" parent="uXLz3Z_i18WQ9WRzZwcr-24">
          <mxGeometry width="150" height="40" as="geometry">
            <mxRectangle width="150" height="40" as="alternateBounds" />
          </mxGeometry>
        </mxCell>
        <mxCell id="uXLz3Z_i18WQ9WRzZwcr-26" value="VARCHAR" style="shape=partialRectangle;html=1;whiteSpace=wrap;connectable=0;strokeColor=inherit;overflow=hidden;fillColor=none;top=0;left=0;bottom=0;right=0;pointerEvents=1;fontSize=16;" vertex="1" parent="uXLz3Z_i18WQ9WRzZwcr-24">
          <mxGeometry x="150" width="149" height="40" as="geometry">
            <mxRectangle width="149" height="40" as="alternateBounds" />
          </mxGeometry>
        </mxCell>
        <mxCell id="uXLz3Z_i18WQ9WRzZwcr-27" value="PRIMARY KEY" style="shape=partialRectangle;html=1;whiteSpace=wrap;connectable=0;strokeColor=inherit;overflow=hidden;fillColor=none;top=0;left=0;bottom=0;right=0;pointerEvents=1;fontSize=16;" vertex="1" parent="uXLz3Z_i18WQ9WRzZwcr-24">
          <mxGeometry x="299" width="141" height="40" as="geometry">
            <mxRectangle width="141" height="40" as="alternateBounds" />
          </mxGeometry>
        </mxCell>
        <mxCell id="uXLz3Z_i18WQ9WRzZwcr-28" value="" style="shape=tableRow;horizontal=0;startSize=0;swimlaneHead=0;swimlaneBody=0;strokeColor=inherit;top=0;left=0;bottom=0;right=0;collapsible=0;dropTarget=0;fillColor=none;points=[[0,0.5],[1,0.5]];portConstraint=eastwest;fontSize=16;" vertex="1" parent="uXLz3Z_i18WQ9WRzZwcr-19">
          <mxGeometry y="110" width="440" height="40" as="geometry" />
        </mxCell>
        <mxCell id="uXLz3Z_i18WQ9WRzZwcr-29" value="név" style="shape=partialRectangle;html=1;whiteSpace=wrap;connectable=0;strokeColor=inherit;overflow=hidden;fillColor=none;top=0;left=0;bottom=0;right=0;pointerEvents=1;fontSize=16;" vertex="1" parent="uXLz3Z_i18WQ9WRzZwcr-28">
          <mxGeometry width="150" height="40" as="geometry">
            <mxRectangle width="150" height="40" as="alternateBounds" />
          </mxGeometry>
        </mxCell>
        <mxCell id="uXLz3Z_i18WQ9WRzZwcr-30" value="VARCHAR" style="shape=partialRectangle;html=1;whiteSpace=wrap;connectable=0;strokeColor=inherit;overflow=hidden;fillColor=none;top=0;left=0;bottom=0;right=0;pointerEvents=1;fontSize=16;" vertex="1" parent="uXLz3Z_i18WQ9WRzZwcr-28">
          <mxGeometry x="150" width="149" height="40" as="geometry">
            <mxRectangle width="149" height="40" as="alternateBounds" />
          </mxGeometry>
        </mxCell>
        <mxCell id="uXLz3Z_i18WQ9WRzZwcr-31" value="NOT NULL" style="shape=partialRectangle;html=1;whiteSpace=wrap;connectable=0;strokeColor=inherit;overflow=hidden;fillColor=none;top=0;left=0;bottom=0;right=0;pointerEvents=1;fontSize=16;" vertex="1" parent="uXLz3Z_i18WQ9WRzZwcr-28">
          <mxGeometry x="299" width="141" height="40" as="geometry">
            <mxRectangle width="141" height="40" as="alternateBounds" />
          </mxGeometry>
        </mxCell>
        <mxCell id="uXLz3Z_i18WQ9WRzZwcr-32" style="shape=tableRow;horizontal=0;startSize=0;swimlaneHead=0;swimlaneBody=0;strokeColor=inherit;top=0;left=0;bottom=0;right=0;collapsible=0;dropTarget=0;fillColor=none;points=[[0,0.5],[1,0.5]];portConstraint=eastwest;fontSize=16;" vertex="1" parent="uXLz3Z_i18WQ9WRzZwcr-19">
          <mxGeometry y="150" width="440" height="40" as="geometry" />
        </mxCell>
        <mxCell id="uXLz3Z_i18WQ9WRzZwcr-33" value="kar" style="shape=partialRectangle;html=1;whiteSpace=wrap;connectable=0;strokeColor=inherit;overflow=hidden;fillColor=none;top=0;left=0;bottom=0;right=0;pointerEvents=1;fontSize=16;" vertex="1" parent="uXLz3Z_i18WQ9WRzZwcr-32">
          <mxGeometry width="150" height="40" as="geometry">
            <mxRectangle width="150" height="40" as="alternateBounds" />
          </mxGeometry>
        </mxCell>
        <mxCell id="uXLz3Z_i18WQ9WRzZwcr-34" value="VARCHAR" style="shape=partialRectangle;html=1;whiteSpace=wrap;connectable=0;strokeColor=inherit;overflow=hidden;fillColor=none;top=0;left=0;bottom=0;right=0;pointerEvents=1;fontSize=16;" vertex="1" parent="uXLz3Z_i18WQ9WRzZwcr-32">
          <mxGeometry x="150" width="149" height="40" as="geometry">
            <mxRectangle width="149" height="40" as="alternateBounds" />
          </mxGeometry>
        </mxCell>
        <mxCell id="uXLz3Z_i18WQ9WRzZwcr-35" value="NOT NULL" style="shape=partialRectangle;html=1;whiteSpace=wrap;connectable=0;strokeColor=inherit;overflow=hidden;fillColor=none;top=0;left=0;bottom=0;right=0;pointerEvents=1;fontSize=16;" vertex="1" parent="uXLz3Z_i18WQ9WRzZwcr-32">
          <mxGeometry x="299" width="141" height="40" as="geometry">
            <mxRectangle width="141" height="40" as="alternateBounds" />
          </mxGeometry>
        </mxCell>
        <mxCell id="uXLz3Z_i18WQ9WRzZwcr-36" value="Oktató" style="shape=table;startSize=30;container=1;collapsible=0;childLayout=tableLayout;strokeColor=default;fontSize=16;fontStyle=1" vertex="1" parent="1">
          <mxGeometry x="600" y="80" width="440" height="277" as="geometry" />
        </mxCell>
        <mxCell id="uXLz3Z_i18WQ9WRzZwcr-37" value="" style="shape=tableRow;horizontal=0;startSize=0;swimlaneHead=0;swimlaneBody=0;strokeColor=inherit;top=0;left=0;bottom=0;right=0;collapsible=0;dropTarget=0;fillColor=none;points=[[0,0.5],[1,0.5]];portConstraint=eastwest;fontSize=16;" vertex="1" parent="uXLz3Z_i18WQ9WRzZwcr-36">
          <mxGeometry y="30" width="440" height="42" as="geometry" />
        </mxCell>
        <mxCell id="uXLz3Z_i18WQ9WRzZwcr-38" value="Attribútum" style="shape=partialRectangle;html=1;whiteSpace=wrap;connectable=0;strokeColor=inherit;overflow=hidden;fillColor=none;top=0;left=0;bottom=0;right=0;pointerEvents=1;fontSize=16;" vertex="1" parent="uXLz3Z_i18WQ9WRzZwcr-37">
          <mxGeometry width="148" height="42" as="geometry">
            <mxRectangle width="148" height="42" as="alternateBounds" />
          </mxGeometry>
        </mxCell>
        <mxCell id="uXLz3Z_i18WQ9WRzZwcr-39" value="Adattípus" style="shape=partialRectangle;html=1;whiteSpace=wrap;connectable=0;strokeColor=inherit;overflow=hidden;fillColor=none;top=0;left=0;bottom=0;right=0;pointerEvents=1;fontSize=16;" vertex="1" parent="uXLz3Z_i18WQ9WRzZwcr-37">
          <mxGeometry x="148" width="144" height="42" as="geometry">
            <mxRectangle width="144" height="42" as="alternateBounds" />
          </mxGeometry>
        </mxCell>
        <mxCell id="uXLz3Z_i18WQ9WRzZwcr-40" value="Integritási feltétel" style="shape=partialRectangle;html=1;whiteSpace=wrap;connectable=0;strokeColor=inherit;overflow=hidden;fillColor=none;top=0;left=0;bottom=0;right=0;pointerEvents=1;fontSize=16;" vertex="1" parent="uXLz3Z_i18WQ9WRzZwcr-37">
          <mxGeometry x="292" width="148" height="42" as="geometry">
            <mxRectangle width="148" height="42" as="alternateBounds" />
          </mxGeometry>
        </mxCell>
        <mxCell id="uXLz3Z_i18WQ9WRzZwcr-41" value="" style="shape=tableRow;horizontal=0;startSize=0;swimlaneHead=0;swimlaneBody=0;strokeColor=inherit;top=0;left=0;bottom=0;right=0;collapsible=0;dropTarget=0;fillColor=none;points=[[0,0.5],[1,0.5]];portConstraint=eastwest;fontSize=16;" vertex="1" parent="uXLz3Z_i18WQ9WRzZwcr-36">
          <mxGeometry y="72" width="440" height="42" as="geometry" />
        </mxCell>
        <mxCell id="uXLz3Z_i18WQ9WRzZwcr-42" value="&lt;u&gt;neptunkód&lt;/u&gt;" style="shape=partialRectangle;html=1;whiteSpace=wrap;connectable=0;strokeColor=inherit;overflow=hidden;fillColor=none;top=0;left=0;bottom=0;right=0;pointerEvents=1;fontSize=16;" vertex="1" parent="uXLz3Z_i18WQ9WRzZwcr-41">
          <mxGeometry width="148" height="42" as="geometry">
            <mxRectangle width="148" height="42" as="alternateBounds" />
          </mxGeometry>
        </mxCell>
        <mxCell id="uXLz3Z_i18WQ9WRzZwcr-43" value="VARCHAR" style="shape=partialRectangle;html=1;whiteSpace=wrap;connectable=0;strokeColor=inherit;overflow=hidden;fillColor=none;top=0;left=0;bottom=0;right=0;pointerEvents=1;fontSize=16;" vertex="1" parent="uXLz3Z_i18WQ9WRzZwcr-41">
          <mxGeometry x="148" width="144" height="42" as="geometry">
            <mxRectangle width="144" height="42" as="alternateBounds" />
          </mxGeometry>
        </mxCell>
        <mxCell id="uXLz3Z_i18WQ9WRzZwcr-44" value="PRIMARY KEY" style="shape=partialRectangle;html=1;whiteSpace=wrap;connectable=0;strokeColor=inherit;overflow=hidden;fillColor=none;top=0;left=0;bottom=0;right=0;pointerEvents=1;fontSize=16;" vertex="1" parent="uXLz3Z_i18WQ9WRzZwcr-41">
          <mxGeometry x="292" width="148" height="42" as="geometry">
            <mxRectangle width="148" height="42" as="alternateBounds" />
          </mxGeometry>
        </mxCell>
        <mxCell id="uXLz3Z_i18WQ9WRzZwcr-45" value="" style="shape=tableRow;horizontal=0;startSize=0;swimlaneHead=0;swimlaneBody=0;strokeColor=inherit;top=0;left=0;bottom=0;right=0;collapsible=0;dropTarget=0;fillColor=none;points=[[0,0.5],[1,0.5]];portConstraint=eastwest;fontSize=16;" vertex="1" parent="uXLz3Z_i18WQ9WRzZwcr-36">
          <mxGeometry y="114" width="440" height="41" as="geometry" />
        </mxCell>
        <mxCell id="uXLz3Z_i18WQ9WRzZwcr-46" value="név" style="shape=partialRectangle;html=1;whiteSpace=wrap;connectable=0;strokeColor=inherit;overflow=hidden;fillColor=none;top=0;left=0;bottom=0;right=0;pointerEvents=1;fontSize=16;" vertex="1" parent="uXLz3Z_i18WQ9WRzZwcr-45">
          <mxGeometry width="148" height="41" as="geometry">
            <mxRectangle width="148" height="41" as="alternateBounds" />
          </mxGeometry>
        </mxCell>
        <mxCell id="uXLz3Z_i18WQ9WRzZwcr-47" value="VARCHAR" style="shape=partialRectangle;html=1;whiteSpace=wrap;connectable=0;strokeColor=inherit;overflow=hidden;fillColor=none;top=0;left=0;bottom=0;right=0;pointerEvents=1;fontSize=16;" vertex="1" parent="uXLz3Z_i18WQ9WRzZwcr-45">
          <mxGeometry x="148" width="144" height="41" as="geometry">
            <mxRectangle width="144" height="41" as="alternateBounds" />
          </mxGeometry>
        </mxCell>
        <mxCell id="uXLz3Z_i18WQ9WRzZwcr-48" value="NOT NULL" style="shape=partialRectangle;html=1;whiteSpace=wrap;connectable=0;strokeColor=inherit;overflow=hidden;fillColor=none;top=0;left=0;bottom=0;right=0;pointerEvents=1;fontSize=16;" vertex="1" parent="uXLz3Z_i18WQ9WRzZwcr-45">
          <mxGeometry x="292" width="148" height="41" as="geometry">
            <mxRectangle width="148" height="41" as="alternateBounds" />
          </mxGeometry>
        </mxCell>
        <mxCell id="uXLz3Z_i18WQ9WRzZwcr-49" style="shape=tableRow;horizontal=0;startSize=0;swimlaneHead=0;swimlaneBody=0;strokeColor=inherit;top=0;left=0;bottom=0;right=0;collapsible=0;dropTarget=0;fillColor=none;points=[[0,0.5],[1,0.5]];portConstraint=eastwest;fontSize=16;" vertex="1" parent="uXLz3Z_i18WQ9WRzZwcr-36">
          <mxGeometry y="155" width="440" height="42" as="geometry" />
        </mxCell>
        <mxCell id="uXLz3Z_i18WQ9WRzZwcr-50" value="beosztás" style="shape=partialRectangle;html=1;whiteSpace=wrap;connectable=0;strokeColor=inherit;overflow=hidden;fillColor=none;top=0;left=0;bottom=0;right=0;pointerEvents=1;fontSize=16;" vertex="1" parent="uXLz3Z_i18WQ9WRzZwcr-49">
          <mxGeometry width="148" height="42" as="geometry">
            <mxRectangle width="148" height="42" as="alternateBounds" />
          </mxGeometry>
        </mxCell>
        <mxCell id="uXLz3Z_i18WQ9WRzZwcr-51" value="VARCHAR" style="shape=partialRectangle;html=1;whiteSpace=wrap;connectable=0;strokeColor=inherit;overflow=hidden;fillColor=none;top=0;left=0;bottom=0;right=0;pointerEvents=1;fontSize=16;" vertex="1" parent="uXLz3Z_i18WQ9WRzZwcr-49">
          <mxGeometry x="148" width="144" height="42" as="geometry">
            <mxRectangle width="144" height="42" as="alternateBounds" />
          </mxGeometry>
        </mxCell>
        <mxCell id="uXLz3Z_i18WQ9WRzZwcr-52" value="NOT NULL" style="shape=partialRectangle;html=1;whiteSpace=wrap;connectable=0;strokeColor=inherit;overflow=hidden;fillColor=none;top=0;left=0;bottom=0;right=0;pointerEvents=1;fontSize=16;" vertex="1" parent="uXLz3Z_i18WQ9WRzZwcr-49">
          <mxGeometry x="292" width="148" height="42" as="geometry">
            <mxRectangle width="148" height="42" as="alternateBounds" />
          </mxGeometry>
        </mxCell>
        <mxCell id="uXLz3Z_i18WQ9WRzZwcr-53" style="shape=tableRow;horizontal=0;startSize=0;swimlaneHead=0;swimlaneBody=0;strokeColor=inherit;top=0;left=0;bottom=0;right=0;collapsible=0;dropTarget=0;fillColor=none;points=[[0,0.5],[1,0.5]];portConstraint=eastwest;fontSize=16;" vertex="1" parent="uXLz3Z_i18WQ9WRzZwcr-36">
          <mxGeometry y="197" width="440" height="80" as="geometry" />
        </mxCell>
        <mxCell id="uXLz3Z_i18WQ9WRzZwcr-54" value="tanszék_kód" style="shape=partialRectangle;html=1;whiteSpace=wrap;connectable=0;strokeColor=inherit;overflow=hidden;fillColor=none;top=0;left=0;bottom=0;right=0;pointerEvents=1;fontSize=16;" vertex="1" parent="uXLz3Z_i18WQ9WRzZwcr-53">
          <mxGeometry width="148" height="80" as="geometry">
            <mxRectangle width="148" height="80" as="alternateBounds" />
          </mxGeometry>
        </mxCell>
        <mxCell id="uXLz3Z_i18WQ9WRzZwcr-55" value="VARCHAR" style="shape=partialRectangle;html=1;whiteSpace=wrap;connectable=0;strokeColor=inherit;overflow=hidden;fillColor=none;top=0;left=0;bottom=0;right=0;pointerEvents=1;fontSize=16;" vertex="1" parent="uXLz3Z_i18WQ9WRzZwcr-53">
          <mxGeometry x="148" width="144" height="80" as="geometry">
            <mxRectangle width="144" height="80" as="alternateBounds" />
          </mxGeometry>
        </mxCell>
        <mxCell id="uXLz3Z_i18WQ9WRzZwcr-56" value="FOREIGN KEY REFERENCES Tanszék(kód)" style="shape=partialRectangle;html=1;whiteSpace=wrap;connectable=0;strokeColor=inherit;overflow=hidden;fillColor=none;top=0;left=0;bottom=0;right=0;pointerEvents=1;fontSize=16;" vertex="1" parent="uXLz3Z_i18WQ9WRzZwcr-53">
          <mxGeometry x="292" width="148" height="80" as="geometry">
            <mxRectangle width="148" height="80" as="alternateBounds" />
          </mxGeometry>
        </mxCell>
        <mxCell id="uXLz3Z_i18WQ9WRzZwcr-57" value="Tantárgy" style="shape=table;startSize=30;container=1;collapsible=0;childLayout=tableLayout;strokeColor=default;fontSize=16;fontStyle=1" vertex="1" parent="1">
          <mxGeometry x="1120" y="80" width="440" height="239" as="geometry" />
        </mxCell>
        <mxCell id="uXLz3Z_i18WQ9WRzZwcr-58" value="" style="shape=tableRow;horizontal=0;startSize=0;swimlaneHead=0;swimlaneBody=0;strokeColor=inherit;top=0;left=0;bottom=0;right=0;collapsible=0;dropTarget=0;fillColor=none;points=[[0,0.5],[1,0.5]];portConstraint=eastwest;fontSize=16;" vertex="1" parent="uXLz3Z_i18WQ9WRzZwcr-57">
          <mxGeometry y="30" width="440" height="42" as="geometry" />
        </mxCell>
        <mxCell id="uXLz3Z_i18WQ9WRzZwcr-59" value="Attribútum" style="shape=partialRectangle;html=1;whiteSpace=wrap;connectable=0;strokeColor=inherit;overflow=hidden;fillColor=none;top=0;left=0;bottom=0;right=0;pointerEvents=1;fontSize=16;" vertex="1" parent="uXLz3Z_i18WQ9WRzZwcr-58">
          <mxGeometry width="148" height="42" as="geometry">
            <mxRectangle width="148" height="42" as="alternateBounds" />
          </mxGeometry>
        </mxCell>
        <mxCell id="uXLz3Z_i18WQ9WRzZwcr-60" value="Adattípus" style="shape=partialRectangle;html=1;whiteSpace=wrap;connectable=0;strokeColor=inherit;overflow=hidden;fillColor=none;top=0;left=0;bottom=0;right=0;pointerEvents=1;fontSize=16;" vertex="1" parent="uXLz3Z_i18WQ9WRzZwcr-58">
          <mxGeometry x="148" width="144" height="42" as="geometry">
            <mxRectangle width="144" height="42" as="alternateBounds" />
          </mxGeometry>
        </mxCell>
        <mxCell id="uXLz3Z_i18WQ9WRzZwcr-61" value="Integritási feltétel" style="shape=partialRectangle;html=1;whiteSpace=wrap;connectable=0;strokeColor=inherit;overflow=hidden;fillColor=none;top=0;left=0;bottom=0;right=0;pointerEvents=1;fontSize=16;" vertex="1" parent="uXLz3Z_i18WQ9WRzZwcr-58">
          <mxGeometry x="292" width="148" height="42" as="geometry">
            <mxRectangle width="148" height="42" as="alternateBounds" />
          </mxGeometry>
        </mxCell>
        <mxCell id="uXLz3Z_i18WQ9WRzZwcr-62" value="" style="shape=tableRow;horizontal=0;startSize=0;swimlaneHead=0;swimlaneBody=0;strokeColor=inherit;top=0;left=0;bottom=0;right=0;collapsible=0;dropTarget=0;fillColor=none;points=[[0,0.5],[1,0.5]];portConstraint=eastwest;fontSize=16;" vertex="1" parent="uXLz3Z_i18WQ9WRzZwcr-57">
          <mxGeometry y="72" width="440" height="42" as="geometry" />
        </mxCell>
        <mxCell id="uXLz3Z_i18WQ9WRzZwcr-63" value="&lt;u&gt;neptunkód&lt;/u&gt;" style="shape=partialRectangle;html=1;whiteSpace=wrap;connectable=0;strokeColor=inherit;overflow=hidden;fillColor=none;top=0;left=0;bottom=0;right=0;pointerEvents=1;fontSize=16;" vertex="1" parent="uXLz3Z_i18WQ9WRzZwcr-62">
          <mxGeometry width="148" height="42" as="geometry">
            <mxRectangle width="148" height="42" as="alternateBounds" />
          </mxGeometry>
        </mxCell>
        <mxCell id="uXLz3Z_i18WQ9WRzZwcr-64" value="VARCHAR" style="shape=partialRectangle;html=1;whiteSpace=wrap;connectable=0;strokeColor=inherit;overflow=hidden;fillColor=none;top=0;left=0;bottom=0;right=0;pointerEvents=1;fontSize=16;" vertex="1" parent="uXLz3Z_i18WQ9WRzZwcr-62">
          <mxGeometry x="148" width="144" height="42" as="geometry">
            <mxRectangle width="144" height="42" as="alternateBounds" />
          </mxGeometry>
        </mxCell>
        <mxCell id="uXLz3Z_i18WQ9WRzZwcr-65" value="PRIMARY KEY" style="shape=partialRectangle;html=1;whiteSpace=wrap;connectable=0;strokeColor=inherit;overflow=hidden;fillColor=none;top=0;left=0;bottom=0;right=0;pointerEvents=1;fontSize=16;" vertex="1" parent="uXLz3Z_i18WQ9WRzZwcr-62">
          <mxGeometry x="292" width="148" height="42" as="geometry">
            <mxRectangle width="148" height="42" as="alternateBounds" />
          </mxGeometry>
        </mxCell>
        <mxCell id="uXLz3Z_i18WQ9WRzZwcr-66" value="" style="shape=tableRow;horizontal=0;startSize=0;swimlaneHead=0;swimlaneBody=0;strokeColor=inherit;top=0;left=0;bottom=0;right=0;collapsible=0;dropTarget=0;fillColor=none;points=[[0,0.5],[1,0.5]];portConstraint=eastwest;fontSize=16;" vertex="1" parent="uXLz3Z_i18WQ9WRzZwcr-57">
          <mxGeometry y="114" width="440" height="41" as="geometry" />
        </mxCell>
        <mxCell id="uXLz3Z_i18WQ9WRzZwcr-67" value="név" style="shape=partialRectangle;html=1;whiteSpace=wrap;connectable=0;strokeColor=inherit;overflow=hidden;fillColor=none;top=0;left=0;bottom=0;right=0;pointerEvents=1;fontSize=16;" vertex="1" parent="uXLz3Z_i18WQ9WRzZwcr-66">
          <mxGeometry width="148" height="41" as="geometry">
            <mxRectangle width="148" height="41" as="alternateBounds" />
          </mxGeometry>
        </mxCell>
        <mxCell id="uXLz3Z_i18WQ9WRzZwcr-68" value="VARCHAR" style="shape=partialRectangle;html=1;whiteSpace=wrap;connectable=0;strokeColor=inherit;overflow=hidden;fillColor=none;top=0;left=0;bottom=0;right=0;pointerEvents=1;fontSize=16;" vertex="1" parent="uXLz3Z_i18WQ9WRzZwcr-66">
          <mxGeometry x="148" width="144" height="41" as="geometry">
            <mxRectangle width="144" height="41" as="alternateBounds" />
          </mxGeometry>
        </mxCell>
        <mxCell id="uXLz3Z_i18WQ9WRzZwcr-69" value="NOT NULL" style="shape=partialRectangle;html=1;whiteSpace=wrap;connectable=0;strokeColor=inherit;overflow=hidden;fillColor=none;top=0;left=0;bottom=0;right=0;pointerEvents=1;fontSize=16;" vertex="1" parent="uXLz3Z_i18WQ9WRzZwcr-66">
          <mxGeometry x="292" width="148" height="41" as="geometry">
            <mxRectangle width="148" height="41" as="alternateBounds" />
          </mxGeometry>
        </mxCell>
        <mxCell id="uXLz3Z_i18WQ9WRzZwcr-70" style="shape=tableRow;horizontal=0;startSize=0;swimlaneHead=0;swimlaneBody=0;strokeColor=inherit;top=0;left=0;bottom=0;right=0;collapsible=0;dropTarget=0;fillColor=none;points=[[0,0.5],[1,0.5]];portConstraint=eastwest;fontSize=16;" vertex="1" parent="uXLz3Z_i18WQ9WRzZwcr-57">
          <mxGeometry y="155" width="440" height="42" as="geometry" />
        </mxCell>
        <mxCell id="uXLz3Z_i18WQ9WRzZwcr-71" value="kredit" style="shape=partialRectangle;html=1;whiteSpace=wrap;connectable=0;strokeColor=inherit;overflow=hidden;fillColor=none;top=0;left=0;bottom=0;right=0;pointerEvents=1;fontSize=16;" vertex="1" parent="uXLz3Z_i18WQ9WRzZwcr-70">
          <mxGeometry width="148" height="42" as="geometry">
            <mxRectangle width="148" height="42" as="alternateBounds" />
          </mxGeometry>
        </mxCell>
        <mxCell id="uXLz3Z_i18WQ9WRzZwcr-72" value="INT" style="shape=partialRectangle;html=1;whiteSpace=wrap;connectable=0;strokeColor=inherit;overflow=hidden;fillColor=none;top=0;left=0;bottom=0;right=0;pointerEvents=1;fontSize=16;" vertex="1" parent="uXLz3Z_i18WQ9WRzZwcr-70">
          <mxGeometry x="148" width="144" height="42" as="geometry">
            <mxRectangle width="144" height="42" as="alternateBounds" />
          </mxGeometry>
        </mxCell>
        <mxCell id="uXLz3Z_i18WQ9WRzZwcr-73" value="CHECK (kredit &amp;gt; 0)" style="shape=partialRectangle;html=1;whiteSpace=wrap;connectable=0;strokeColor=inherit;overflow=hidden;fillColor=none;top=0;left=0;bottom=0;right=0;pointerEvents=1;fontSize=16;" vertex="1" parent="uXLz3Z_i18WQ9WRzZwcr-70">
          <mxGeometry x="292" width="148" height="42" as="geometry">
            <mxRectangle width="148" height="42" as="alternateBounds" />
          </mxGeometry>
        </mxCell>
        <mxCell id="uXLz3Z_i18WQ9WRzZwcr-74" style="shape=tableRow;horizontal=0;startSize=0;swimlaneHead=0;swimlaneBody=0;strokeColor=inherit;top=0;left=0;bottom=0;right=0;collapsible=0;dropTarget=0;fillColor=none;points=[[0,0.5],[1,0.5]];portConstraint=eastwest;fontSize=16;" vertex="1" parent="uXLz3Z_i18WQ9WRzZwcr-57">
          <mxGeometry y="197" width="440" height="42" as="geometry" />
        </mxCell>
        <mxCell id="uXLz3Z_i18WQ9WRzZwcr-75" value="lezárás_módja" style="shape=partialRectangle;html=1;whiteSpace=wrap;connectable=0;strokeColor=inherit;overflow=hidden;fillColor=none;top=0;left=0;bottom=0;right=0;pointerEvents=1;fontSize=16;" vertex="1" parent="uXLz3Z_i18WQ9WRzZwcr-74">
          <mxGeometry width="148" height="42" as="geometry">
            <mxRectangle width="148" height="42" as="alternateBounds" />
          </mxGeometry>
        </mxCell>
        <mxCell id="uXLz3Z_i18WQ9WRzZwcr-76" value="VARCHAR" style="shape=partialRectangle;html=1;whiteSpace=wrap;connectable=0;strokeColor=inherit;overflow=hidden;fillColor=none;top=0;left=0;bottom=0;right=0;pointerEvents=1;fontSize=16;" vertex="1" parent="uXLz3Z_i18WQ9WRzZwcr-74">
          <mxGeometry x="148" width="144" height="42" as="geometry">
            <mxRectangle width="144" height="42" as="alternateBounds" />
          </mxGeometry>
        </mxCell>
        <mxCell id="uXLz3Z_i18WQ9WRzZwcr-77" value="NOT NULL" style="shape=partialRectangle;html=1;whiteSpace=wrap;connectable=0;strokeColor=inherit;overflow=hidden;fillColor=none;top=0;left=0;bottom=0;right=0;pointerEvents=1;fontSize=16;" vertex="1" parent="uXLz3Z_i18WQ9WRzZwcr-74">
          <mxGeometry x="292" width="148" height="42" as="geometry">
            <mxRectangle width="148" height="42" as="alternateBounds" />
          </mxGeometry>
        </mxCell>
        <mxCell id="uXLz3Z_i18WQ9WRzZwcr-78" value="Oktató_Tantárgy" style="shape=table;startSize=30;container=1;collapsible=0;childLayout=tableLayout;strokeColor=default;fontSize=16;fontStyle=1" vertex="1" parent="1">
          <mxGeometry x="600" y="440" width="440" height="274" as="geometry" />
        </mxCell>
        <mxCell id="uXLz3Z_i18WQ9WRzZwcr-79" value="" style="shape=tableRow;horizontal=0;startSize=0;swimlaneHead=0;swimlaneBody=0;strokeColor=inherit;top=0;left=0;bottom=0;right=0;collapsible=0;dropTarget=0;fillColor=none;points=[[0,0.5],[1,0.5]];portConstraint=eastwest;fontSize=16;" vertex="1" parent="uXLz3Z_i18WQ9WRzZwcr-78">
          <mxGeometry y="30" width="440" height="42" as="geometry" />
        </mxCell>
        <mxCell id="uXLz3Z_i18WQ9WRzZwcr-80" value="Attribútum" style="shape=partialRectangle;html=1;whiteSpace=wrap;connectable=0;strokeColor=inherit;overflow=hidden;fillColor=none;top=0;left=0;bottom=0;right=0;pointerEvents=1;fontSize=16;" vertex="1" parent="uXLz3Z_i18WQ9WRzZwcr-79">
          <mxGeometry width="148" height="42" as="geometry">
            <mxRectangle width="148" height="42" as="alternateBounds" />
          </mxGeometry>
        </mxCell>
        <mxCell id="uXLz3Z_i18WQ9WRzZwcr-81" value="Adattípus" style="shape=partialRectangle;html=1;whiteSpace=wrap;connectable=0;strokeColor=inherit;overflow=hidden;fillColor=none;top=0;left=0;bottom=0;right=0;pointerEvents=1;fontSize=16;" vertex="1" parent="uXLz3Z_i18WQ9WRzZwcr-79">
          <mxGeometry x="148" width="144" height="42" as="geometry">
            <mxRectangle width="144" height="42" as="alternateBounds" />
          </mxGeometry>
        </mxCell>
        <mxCell id="uXLz3Z_i18WQ9WRzZwcr-82" value="Integritási feltétel" style="shape=partialRectangle;html=1;whiteSpace=wrap;connectable=0;strokeColor=inherit;overflow=hidden;fillColor=none;top=0;left=0;bottom=0;right=0;pointerEvents=1;fontSize=16;" vertex="1" parent="uXLz3Z_i18WQ9WRzZwcr-79">
          <mxGeometry x="292" width="148" height="42" as="geometry">
            <mxRectangle width="148" height="42" as="alternateBounds" />
          </mxGeometry>
        </mxCell>
        <mxCell id="uXLz3Z_i18WQ9WRzZwcr-83" value="" style="shape=tableRow;horizontal=0;startSize=0;swimlaneHead=0;swimlaneBody=0;strokeColor=inherit;top=0;left=0;bottom=0;right=0;collapsible=0;dropTarget=0;fillColor=none;points=[[0,0.5],[1,0.5]];portConstraint=eastwest;fontSize=16;" vertex="1" parent="uXLz3Z_i18WQ9WRzZwcr-78">
          <mxGeometry y="72" width="440" height="80" as="geometry" />
        </mxCell>
        <mxCell id="uXLz3Z_i18WQ9WRzZwcr-84" value="&lt;u&gt;oktató_neptunkód&lt;/u&gt;" style="shape=partialRectangle;html=1;whiteSpace=wrap;connectable=0;strokeColor=inherit;overflow=hidden;fillColor=none;top=0;left=0;bottom=0;right=0;pointerEvents=1;fontSize=16;" vertex="1" parent="uXLz3Z_i18WQ9WRzZwcr-83">
          <mxGeometry width="148" height="80" as="geometry">
            <mxRectangle width="148" height="80" as="alternateBounds" />
          </mxGeometry>
        </mxCell>
        <mxCell id="uXLz3Z_i18WQ9WRzZwcr-85" value="VARCHAR" style="shape=partialRectangle;html=1;whiteSpace=wrap;connectable=0;strokeColor=inherit;overflow=hidden;fillColor=none;top=0;left=0;bottom=0;right=0;pointerEvents=1;fontSize=16;" vertex="1" parent="uXLz3Z_i18WQ9WRzZwcr-83">
          <mxGeometry x="148" width="144" height="80" as="geometry">
            <mxRectangle width="144" height="80" as="alternateBounds" />
          </mxGeometry>
        </mxCell>
        <mxCell id="uXLz3Z_i18WQ9WRzZwcr-86" value="FOREIGN KEY REFERENCES Oktató(neptunkód)" style="shape=partialRectangle;html=1;whiteSpace=wrap;connectable=0;strokeColor=inherit;overflow=hidden;fillColor=none;top=0;left=0;bottom=0;right=0;pointerEvents=1;fontSize=16;" vertex="1" parent="uXLz3Z_i18WQ9WRzZwcr-83">
          <mxGeometry x="292" width="148" height="80" as="geometry">
            <mxRectangle width="148" height="80" as="alternateBounds" />
          </mxGeometry>
        </mxCell>
        <mxCell id="uXLz3Z_i18WQ9WRzZwcr-87" value="" style="shape=tableRow;horizontal=0;startSize=0;swimlaneHead=0;swimlaneBody=0;strokeColor=inherit;top=0;left=0;bottom=0;right=0;collapsible=0;dropTarget=0;fillColor=none;points=[[0,0.5],[1,0.5]];portConstraint=eastwest;fontSize=16;" vertex="1" parent="uXLz3Z_i18WQ9WRzZwcr-78">
          <mxGeometry y="152" width="440" height="80" as="geometry" />
        </mxCell>
        <mxCell id="uXLz3Z_i18WQ9WRzZwcr-88" value="&lt;u&gt;tantárgy_neptunkód&lt;/u&gt;" style="shape=partialRectangle;html=1;whiteSpace=wrap;connectable=0;strokeColor=inherit;overflow=hidden;fillColor=none;top=0;left=0;bottom=0;right=0;pointerEvents=1;fontSize=16;" vertex="1" parent="uXLz3Z_i18WQ9WRzZwcr-87">
          <mxGeometry width="148" height="80" as="geometry">
            <mxRectangle width="148" height="80" as="alternateBounds" />
          </mxGeometry>
        </mxCell>
        <mxCell id="uXLz3Z_i18WQ9WRzZwcr-89" value="VARCHAR" style="shape=partialRectangle;html=1;whiteSpace=wrap;connectable=0;strokeColor=inherit;overflow=hidden;fillColor=none;top=0;left=0;bottom=0;right=0;pointerEvents=1;fontSize=16;" vertex="1" parent="uXLz3Z_i18WQ9WRzZwcr-87">
          <mxGeometry x="148" width="144" height="80" as="geometry">
            <mxRectangle width="144" height="80" as="alternateBounds" />
          </mxGeometry>
        </mxCell>
        <mxCell id="uXLz3Z_i18WQ9WRzZwcr-90" value="FOREIGN KEY REFERENCES Tantárgy(neptunkód)" style="shape=partialRectangle;html=1;whiteSpace=wrap;connectable=0;strokeColor=inherit;overflow=hidden;fillColor=none;top=0;left=0;bottom=0;right=0;pointerEvents=1;fontSize=16;" vertex="1" parent="uXLz3Z_i18WQ9WRzZwcr-87">
          <mxGeometry x="292" width="148" height="80" as="geometry">
            <mxRectangle width="148" height="80" as="alternateBounds" />
          </mxGeometry>
        </mxCell>
        <mxCell id="uXLz3Z_i18WQ9WRzZwcr-91" style="shape=tableRow;horizontal=0;startSize=0;swimlaneHead=0;swimlaneBody=0;strokeColor=inherit;top=0;left=0;bottom=0;right=0;collapsible=0;dropTarget=0;fillColor=none;points=[[0,0.5],[1,0.5]];portConstraint=eastwest;fontSize=16;" vertex="1" parent="uXLz3Z_i18WQ9WRzZwcr-78">
          <mxGeometry y="232" width="440" height="42" as="geometry" />
        </mxCell>
        <mxCell id="uXLz3Z_i18WQ9WRzZwcr-92" value="&lt;u&gt;tanév/félév&lt;/u&gt;" style="shape=partialRectangle;html=1;whiteSpace=wrap;connectable=0;strokeColor=inherit;overflow=hidden;fillColor=none;top=0;left=0;bottom=0;right=0;pointerEvents=1;fontSize=16;" vertex="1" parent="uXLz3Z_i18WQ9WRzZwcr-91">
          <mxGeometry width="148" height="42" as="geometry">
            <mxRectangle width="148" height="42" as="alternateBounds" />
          </mxGeometry>
        </mxCell>
        <mxCell id="uXLz3Z_i18WQ9WRzZwcr-93" value="VARCHAR" style="shape=partialRectangle;html=1;whiteSpace=wrap;connectable=0;strokeColor=inherit;overflow=hidden;fillColor=none;top=0;left=0;bottom=0;right=0;pointerEvents=1;fontSize=16;" vertex="1" parent="uXLz3Z_i18WQ9WRzZwcr-91">
          <mxGeometry x="148" width="144" height="42" as="geometry">
            <mxRectangle width="144" height="42" as="alternateBounds" />
          </mxGeometry>
        </mxCell>
        <mxCell id="uXLz3Z_i18WQ9WRzZwcr-94" value="PRIMARY KEY" style="shape=partialRectangle;html=1;whiteSpace=wrap;connectable=0;strokeColor=inherit;overflow=hidden;fillColor=none;top=0;left=0;bottom=0;right=0;pointerEvents=1;fontSize=16;" vertex="1" parent="uXLz3Z_i18WQ9WRzZwcr-91">
          <mxGeometry x="292" width="148" height="42" as="geometry">
            <mxRectangle width="148" height="42" as="alternateBounds" />
          </mxGeometry>
        </mxCell>
      </root>
    </mxGraphModel>
  </diagram>
</mxfile>
